<mxfile host="Electron" modified="2025-02-22T15:54:51.719Z" agent="Mozilla/5.0 (Windows NT 10.0; Win64; x64) AppleWebKit/537.36 (KHTML, like Gecko) draw.io/24.6.4 Chrome/124.0.6367.207 Electron/30.0.6 Safari/537.36" etag="bSEAY1Tk2Yzb9UXt939o" version="24.6.4" type="device">
  <diagram name="Page-1" id="ABRrR5z32ukW61zxp_ed">
    <mxGraphModel dx="1034" dy="557" grid="1" gridSize="10" guides="1" tooltips="1" connect="1" arrows="1" fold="1" page="1" pageScale="1" pageWidth="850" pageHeight="1100" math="0" shadow="0">
      <root>
        <mxCell id="0" />
        <mxCell id="1" parent="0" />
        <mxCell id="kagfz0QSjk8vlPQCIBLh-1" value="" style="rounded=1;whiteSpace=wrap;html=1;" vertex="1" parent="1">
          <mxGeometry x="30" y="40" width="750" height="440" as="geometry" />
        </mxCell>
        <mxCell id="kagfz0QSjk8vlPQCIBLh-2" value="Dashboard page" style="rounded=1;whiteSpace=wrap;html=1;" vertex="1" parent="1">
          <mxGeometry x="80" width="150" height="30" as="geometry" />
        </mxCell>
        <mxCell id="kagfz0QSjk8vlPQCIBLh-3" value="" style="endArrow=none;html=1;rounded=0;entryX=0.227;entryY=0.023;entryDx=0;entryDy=0;entryPerimeter=0;exitX=0.227;exitY=1.005;exitDx=0;exitDy=0;exitPerimeter=0;" edge="1" parent="1">
          <mxGeometry width="50" height="50" relative="1" as="geometry">
            <mxPoint x="200.25" y="475.1999999999998" as="sourcePoint" />
            <mxPoint x="200.25" y="43.120000000000005" as="targetPoint" />
          </mxGeometry>
        </mxCell>
        <mxCell id="kagfz0QSjk8vlPQCIBLh-4" value="Overview" style="rounded=1;whiteSpace=wrap;html=1;" vertex="1" parent="1">
          <mxGeometry x="230" y="130" width="100" height="30" as="geometry" />
        </mxCell>
        <mxCell id="kagfz0QSjk8vlPQCIBLh-5" value="Account 1" style="rounded=1;whiteSpace=wrap;html=1;" vertex="1" parent="1">
          <mxGeometry x="230" y="180" width="120" height="30" as="geometry" />
        </mxCell>
        <mxCell id="kagfz0QSjk8vlPQCIBLh-6" value="Account 2" style="rounded=1;whiteSpace=wrap;html=1;" vertex="1" parent="1">
          <mxGeometry x="230" y="230" width="120" height="30" as="geometry" />
        </mxCell>
        <mxCell id="kagfz0QSjk8vlPQCIBLh-7" value="Account 3" style="rounded=1;whiteSpace=wrap;html=1;" vertex="1" parent="1">
          <mxGeometry x="230" y="280" width="120" height="30" as="geometry" />
        </mxCell>
        <mxCell id="kagfz0QSjk8vlPQCIBLh-8" value="balance" style="rounded=1;whiteSpace=wrap;html=1;" vertex="1" parent="1">
          <mxGeometry x="365" y="180" width="55" height="30" as="geometry" />
        </mxCell>
        <mxCell id="kagfz0QSjk8vlPQCIBLh-10" value="balance" style="rounded=1;whiteSpace=wrap;html=1;" vertex="1" parent="1">
          <mxGeometry x="365" y="230" width="55" height="30" as="geometry" />
        </mxCell>
        <mxCell id="kagfz0QSjk8vlPQCIBLh-11" value="balance" style="rounded=1;whiteSpace=wrap;html=1;" vertex="1" parent="1">
          <mxGeometry x="365" y="280" width="55" height="30" as="geometry" />
        </mxCell>
        <mxCell id="kagfz0QSjk8vlPQCIBLh-13" value="HOME" style="rounded=1;whiteSpace=wrap;html=1;" vertex="1" parent="1">
          <mxGeometry x="50" y="120" width="130" height="30" as="geometry" />
        </mxCell>
        <mxCell id="kagfz0QSjk8vlPQCIBLh-14" value="Spending" style="rounded=1;whiteSpace=wrap;html=1;" vertex="1" parent="1">
          <mxGeometry x="50" y="170" width="130" height="30" as="geometry" />
        </mxCell>
        <mxCell id="kagfz0QSjk8vlPQCIBLh-15" value="Budget" style="rounded=1;whiteSpace=wrap;html=1;" vertex="1" parent="1">
          <mxGeometry x="50" y="220" width="130" height="30" as="geometry" />
        </mxCell>
        <mxCell id="kagfz0QSjk8vlPQCIBLh-16" value="Accounts" style="rounded=1;whiteSpace=wrap;html=1;" vertex="1" parent="1">
          <mxGeometry x="50" y="270" width="130" height="30" as="geometry" />
        </mxCell>
        <mxCell id="kagfz0QSjk8vlPQCIBLh-17" value="Transactions" style="rounded=1;whiteSpace=wrap;html=1;" vertex="1" parent="1">
          <mxGeometry x="50" y="320" width="130" height="30" as="geometry" />
        </mxCell>
        <mxCell id="kagfz0QSjk8vlPQCIBLh-18" value="DASHBOARD" style="rounded=1;whiteSpace=wrap;html=1;" vertex="1" parent="1">
          <mxGeometry x="230" y="80" width="180" height="30" as="geometry" />
        </mxCell>
        <mxCell id="kagfz0QSjk8vlPQCIBLh-20" value="Activity" style="rounded=1;whiteSpace=wrap;html=1;" vertex="1" parent="1">
          <mxGeometry x="230" y="330" width="100" height="30" as="geometry" />
        </mxCell>
        <mxCell id="kagfz0QSjk8vlPQCIBLh-21" value="Notifications" style="whiteSpace=wrap;html=1;aspect=fixed;" vertex="1" parent="1">
          <mxGeometry x="560" y="130" width="190" height="190" as="geometry" />
        </mxCell>
        <mxCell id="kagfz0QSjk8vlPQCIBLh-22" value="" style="rounded=1;whiteSpace=wrap;html=1;" vertex="1" parent="1">
          <mxGeometry x="17.5" y="560" width="750" height="440" as="geometry" />
        </mxCell>
        <mxCell id="kagfz0QSjk8vlPQCIBLh-23" value="Dashboard page" style="rounded=1;whiteSpace=wrap;html=1;" vertex="1" parent="1">
          <mxGeometry x="67.5" y="520" width="150" height="30" as="geometry" />
        </mxCell>
        <mxCell id="kagfz0QSjk8vlPQCIBLh-24" value="HOME" style="rounded=1;whiteSpace=wrap;html=1;" vertex="1" parent="1">
          <mxGeometry x="50" y="620" width="130" height="30" as="geometry" />
        </mxCell>
        <mxCell id="kagfz0QSjk8vlPQCIBLh-25" value="Spending" style="rounded=1;whiteSpace=wrap;html=1;" vertex="1" parent="1">
          <mxGeometry x="235" y="600" width="175" height="30" as="geometry" />
        </mxCell>
        <mxCell id="kagfz0QSjk8vlPQCIBLh-26" value="Budget" style="rounded=1;whiteSpace=wrap;html=1;" vertex="1" parent="1">
          <mxGeometry x="50" y="720" width="130" height="30" as="geometry" />
        </mxCell>
        <mxCell id="kagfz0QSjk8vlPQCIBLh-27" value="Accounts" style="rounded=1;whiteSpace=wrap;html=1;" vertex="1" parent="1">
          <mxGeometry x="50" y="770" width="130" height="30" as="geometry" />
        </mxCell>
        <mxCell id="kagfz0QSjk8vlPQCIBLh-28" value="Transactions" style="rounded=1;whiteSpace=wrap;html=1;" vertex="1" parent="1">
          <mxGeometry x="50" y="820" width="130" height="30" as="geometry" />
        </mxCell>
        <mxCell id="kagfz0QSjk8vlPQCIBLh-29" value="" style="endArrow=none;html=1;rounded=0;entryX=0.227;entryY=0.023;entryDx=0;entryDy=0;entryPerimeter=0;exitX=0.227;exitY=1.005;exitDx=0;exitDy=0;exitPerimeter=0;" edge="1" parent="1">
          <mxGeometry width="50" height="50" relative="1" as="geometry">
            <mxPoint x="200" y="999.0399999999998" as="sourcePoint" />
            <mxPoint x="200" y="566.96" as="targetPoint" />
          </mxGeometry>
        </mxCell>
        <mxCell id="kagfz0QSjk8vlPQCIBLh-30" value="Spending" style="rounded=1;whiteSpace=wrap;html=1;" vertex="1" parent="1">
          <mxGeometry x="50" y="670" width="130" height="30" as="geometry" />
        </mxCell>
      </root>
    </mxGraphModel>
  </diagram>
</mxfile>
